<?xml version="1.0" encoding="UTF-8"?>
<svg width="22px" height="23px" viewBox="0 0 22 23" version="1.1" xmlns="http://www.w3.org/2000/svg" xmlns:xlink="http://www.w3.org/1999/xlink">
    <!-- Generator: Sketch 49.2 (51160) - http://www.bohemiancoding.com/sketch -->
    <title>noun_52714_cc</title>
    <desc>Created with Sketch.</desc>
    <defs></defs>
    <g id="Page-1" stroke="none" stroke-width="1" fill="none" fill-rule="evenodd">
        <g id="noun_52714_cc" fill="#FFFFFF" fill-rule="nonzero">
            <path d="M7.44600986,0 L7.44600986,2.22592813 L19.9207327,2.22592813 L19.9207327,20.7740719 L7.44600986,20.7740719 L7.44600986,23 L22,23 L22,0.000471495049 L7.44600986,0.000471495049 L7.44600986,0 Z M3.80762243,8.3237736 C3.77503065,8.33414649 3.73407072,8.35630676 3.69971722,8.39355487 L0.10405145,11.2687317 C-0.0346838167,11.4172526 -0.0346838167,11.5841619 0.10405145,11.7322113 L3.69971722,14.6073881 C3.83845249,14.7559091 3.98115162,14.6913142 3.98115162,14.4678256 L3.98115162,12.6129641 L14.3766072,12.6129641 L14.3766072,10.3870359 L3.98071119,10.3870359 L3.98071119,8.53217441 C3.98071119,8.36526516 3.90539776,8.29265493 3.80762243,8.3237736 Z" id="Shape"></path>
        </g>
    </g>
</svg>